<svg xmlns="http://www.w3.org/2000/svg" xmlns:xlink="http://www.w3.org/1999/xlink" viewBox="0 0 500 500"><defs><clipPath id="ae184c5f-622c-4929-b6ff-2430091880f5"><rect width="500" height="500" fill="none"/></clipPath><linearGradient id="fd5b0e26-0477-46ad-ad1f-4094d61a4704" x1="59.04" y1="473.56" x2="63.36" y2="361.73" gradientUnits="userSpaceOnUse"><stop offset="0" stop-color="#945d4a"/><stop offset="1" stop-color="#a7796a"/></linearGradient><linearGradient id="b4013933-eb2f-4512-9aa9-7f953f79d780" x1="161.72" y1="445.36" x2="168.44" y2="366.16" gradientUnits="userSpaceOnUse"><stop offset="0" stop-color="#e49f4a"/><stop offset="1" stop-color="#ecbd83"/></linearGradient><linearGradient id="b3c605c7-67d4-4d4f-bb54-106529988d3f" x1="257.02" y1="373.47" x2="258.32" y2="447.28" gradientUnits="userSpaceOnUse"><stop offset="0.28" stop-color="#fbc7b2"/><stop offset="1" stop-color="#f9aa8c"/></linearGradient><linearGradient id="f10c0a8f-98c0-414b-a6f8-956f45a78f44" x1="348.36" y1="483.84" x2="349" y2="352.66" gradientUnits="userSpaceOnUse"><stop offset="0" stop-color="#573427"/><stop offset="1" stop-color="#6a493e"/></linearGradient><linearGradient id="b0e8ffd4-2885-41bc-840e-a518260a9fad" x1="430.04" y1="512.84" x2="451.26" y2="373.94" gradientUnits="userSpaceOnUse"><stop offset="0" stop-color="#f9ad7c"/><stop offset="1" stop-color="#fbd8ad"/></linearGradient></defs><g id="ad80e84c-d264-4fb3-bef9-96797dccf18e" data-name="OBJECTS"><g clip-path="url(#ae184c5f-622c-4929-b6ff-2430091880f5)"><g id="a21a6cfd-efb3-456b-87ff-19b3e881b372" data-name="Layer0 0 FILL"><path d="M70.7,393.05c-4.45,0-8.07-.07-10.76-.2a79.94,79.94,0,0,1-10.73-1.2,11,11,0,0,1-3.26-1,3.82,3.82,0,0,1-2.05-2.8,3.07,3.07,0,0,1,.53-2,2.84,2.84,0,0,1,1.72-1.23,2.67,2.67,0,0,1,.81-.1,11,11,0,0,1,2.18.29,65.88,65.88,0,0,0,11.17,1.4c1.77.09,4.06.13,6.82.13l4.52,0a53.28,53.28,0,0,0,5.33-.2c.6-.06,1.5-.18,2.69-.35a18.29,18.29,0,0,1,2.3-.16h.49a5,5,0,0,1,2.93,1.1,2.78,2.78,0,0,1,.86,2.79,3,3,0,0,1-1.82,2.34,4.59,4.59,0,0,1-1.56.42l-1.66.05c-.26,0-1.7.18-4.28.55A58.48,58.48,0,0,1,70.7,393.05Zm-14.6-29.7c-.7,0-1.37-.5-2-1.5a21.62,21.62,0,0,1-1.56-3.06,22.86,22.86,0,0,0-1.44-3.19,13.9,13.9,0,0,0-2.61-2.9,9.24,9.24,0,0,0-4.22-.85A12.57,12.57,0,0,0,39.13,353l-.53.24.27-.51a25,25,0,0,0,1.64-3.92c.13-.43.27-.85.4-1.25l.07-.22.21.1A10.85,10.85,0,0,0,46,348.6a23.53,23.53,0,0,0,8-1.29,14.35,14.35,0,0,0,4.84-2.71l.19-.17.12.23a2.8,2.8,0,0,0,2.54,1.44c1.28.1,3.29.15,6,.15s4.2-2,5-5.94l.4.05c-.16,2.64.38,4.38,1.61,5.17s3.36,1.22,6.24,1.22,4.8-.29,5.8-.87,2.33-2.59,4-5.87a.51.51,0,0,1,.19-.4l.39-.39,0,.55c-.29,3.23,0,5.51.86,6.77s2.72,2,5.61,2.31a13.51,13.51,0,0,0,1.62.1c2,0,3.34-.51,4.1-1.52a8.88,8.88,0,0,0,.58-1,15.75,15.75,0,0,0,.9-1.69,13.29,13.29,0,0,0,.59-1.34,2.73,2.73,0,0,0,.2-.48l.4-1.51c0,.18,0,1.91,0,2.07,0,.44-.06.88-.1,1.31q0,1.14-.15,2.25c-.16,2.05-.4,2.91-.64,4.75l-.34,2.5-.92-.88a5.69,5.69,0,0,0-1,0,28.54,28.54,0,0,0-7,.85,60.63,60.63,0,0,1-6.94,1.2A62.33,62.33,0,0,1,70.19,353c-5-1.65-8.4-2.49-10-2.49a29,29,0,0,0-3.91.15c-1.31.24-1.94.8-1.94,1.7,0,.75.68,2,2,3.68a8.57,8.57,0,0,1,2,5,3.07,3.07,0,0,1-.23,1.45C57.83,363,57.14,363.35,56.1,363.35Z" fill="#a26957"/><path d="M30,330.05c.07.66.16,1.31.25,1.95a14.31,14.31,0,0,1-1.7-.45l-.9-.3-.15-.05a17.12,17.12,0,0,0-3.8-1q-1.7,0-3.75,9-2.55,11.44-1.35,26.9l.45,5.3q.45,1.31,3.1,3.55a6.22,6.22,0,0,0,.7.6,29.61,29.61,0,0,0,8,4.05q2.35.86,5.25,1.75,4.31,1.95,4.3,6.2a.51.51,0,0,0,0,.3q-1.08,6.54-4.6,54.4Q32,493.55,32,507.7l64.85-2.25Q91.25,458,91,422.4V404.65q.12-13,1.35-16.65a131,131,0,0,1,6.85-13.9q4.14-7.65,5.8-21.2a3.94,3.94,0,0,0-.9-.1,47.53,47.53,0,0,0-8.2,1.25,62.11,62.11,0,0,1-6.9,1.2,61.93,61.93,0,0,1-18.75-2.45q-7.6-2.51-10.1-2.5a29.81,29.81,0,0,0-3.95.15c-1.4.27-2.1.9-2.1,1.9,0,.8.68,2.07,2,3.8a8.34,8.34,0,0,1,2,4.85,3.09,3.09,0,0,1-.2,1.35c-.27.53-.88.8-1.85.8-.63,0-1.23-.47-1.8-1.4-.1-.1-.62-1.12-1.55-3.05a22.82,22.82,0,0,0-1.45-3.2,14,14,0,0,0-2.65-2.95,9.24,9.24,0,0,0-4.35-.9,12.67,12.67,0,0,0-5.25,1.2,26,26,0,0,0,1.65-4c.13-.43.27-.85.4-1.25A11,11,0,0,0,46,348.8a23.65,23.65,0,0,0,8.1-1.3,14.54,14.54,0,0,0,4.9-2.75,3,3,0,0,0,2.7,1.55q1.95.15,6,.15c2.67,0,4.38-2.07,5.15-6.1-.17,2.73.4,4.52,1.7,5.35S78,347,80.9,347s4.87-.3,5.9-.9,2.38-2.62,4-5.95a.49.49,0,0,1,.15-.35q-.45,5,.9,6.9c.87,1.3,2.78,2.1,5.75,2.4s4.9-.17,5.9-1.5a10.58,10.58,0,0,0,.6-1,14.21,14.21,0,0,0,.9-1.7,13.79,13.79,0,0,0,.6-1.35,2.37,2.37,0,0,0,.2-.5,8.38,8.38,0,0,0,.35-.8,4.41,4.41,0,0,0,.15-.55c.78-2.2,1.65-5.26,2.6-9.2a34.41,34.41,0,0,0,1.3-9.8,8.84,8.84,0,0,0-2.65-5.55c-1.57-1.47-4.07-2.33-7.5-2.6a17.35,17.35,0,0,0-3.7,0c-1.17.22-1.89.65-2.15,1.3,0-.4,0-.75,0-1.05a8.77,8.77,0,0,0,0-1.15,8.18,8.18,0,0,0-1.9-4.2Q90.3,307,83.25,306t-8.7.35a9.23,9.23,0,0,0-.85.8,7.12,7.12,0,0,0-1.3,2.45,7.22,7.22,0,0,0-.75-2.5l-.05-.1q-2.32-3.79-8.55-3.8c-4.23,0-7.12.08-8.65.25a4.63,4.63,0,0,0-3.7,3c-.1.86-.18,1.73-.25,2.6-.1,1.17-.16,2.35-.2,3.55a3.35,3.35,0,0,0-1.55-3,10.2,10.2,0,0,0-5.2-1.3,63.33,63.33,0,0,0-7.15,0q-6.49,0-6.8,8.45a85.93,85.93,0,0,0,.4,13.35m16.25,54.7a6.58,6.58,0,0,1,2.9.2,66.13,66.13,0,0,0,11.2,1.4c2.67.13,6.45.17,11.35.1,2.37,0,4.15-.07,5.35-.2.6-.07,1.5-.18,2.7-.35a17.53,17.53,0,0,1,2.75-.15,4.67,4.67,0,0,1,2.8,1.05,2.54,2.54,0,0,1,.8,2.6,2.76,2.76,0,0,1-1.7,2.2,4.54,4.54,0,0,1-1.5.4l-1.65.05c-.27,0-1.7.18-4.3.55a55.16,55.16,0,0,1-6.2.25q-6.7,0-10.75-.2a79.28,79.28,0,0,1-10.7-1.2,10.79,10.79,0,0,1-3.2-1,3.6,3.6,0,0,1-1.95-2.65,2.81,2.81,0,0,1,.5-1.9A2.65,2.65,0,0,1,46.2,384.75Z" fill="url(#fd5b0e26-0477-46ad-ad1f-4094d61a4704)"/></g><g id="a2bde308-9936-446e-abe0-46267ce46ee8" data-name="Layer0 0 MEMBER 0 1 STROKES"><path d="M33.25,360.1a.47.47,0,0,1-.35-.15.48.48,0,0,1,0-.7l.3-.3c.39-.39,1.07-1.14,2-2.23a35.33,35.33,0,0,0,2.72-3.1c.23-.33.45-.67.68-1a26.27,26.27,0,0,0,1.61-3.86c.08-.28.17-.56.26-.84a16.32,16.32,0,0,1-3.28-2.33.5.5,0,1,1,.68-.74,14.46,14.46,0,0,0,3.43,2.37h0A10.54,10.54,0,0,0,46,348.3,23.39,23.39,0,0,0,53.93,347a14.37,14.37,0,0,0,4.74-2.65A8.25,8.25,0,0,0,61,338.81c.37-4.56-.71-7.58-3.22-9-1.05.24-2.63.67-4.68,1.3l-1.66.5h0a46.24,46.24,0,0,1-11.83,1.72,49,49,0,0,1-8.09-.58.5.5,0,0,1,.18-1,46.76,46.76,0,0,0,7.91.57,45,45,0,0,0,11.16-1.57,175.37,175.37,0,0,1-1-18.23.5.5,0,0,1,.5-.5h0a.5.5,0,0,1,.5.5,175.23,175.23,0,0,0,1,17.95l1.07-.33c2.21-.67,3.87-1.12,4.94-1.36a.49.49,0,0,1,.34.05c3,1.56,4.33,4.93,3.92,10a9.4,9.4,0,0,1-2.37,5.94,2.67,2.67,0,0,0,2.11,1c1.28.1,3.28.15,6,.15,2.41,0,3.93-1.89,4.66-5.69a.08.08,0,0,1,0,0,43.06,43.06,0,0,0,.38-4.94c.13-2.78.12-7.32,0-13.52-.14-5.42-.37-9.23-.67-11.34a.5.5,0,1,1,1-.14c.3,2.14.53,6,.68,11.46.17,6.21.18,10.78,0,13.58a46.8,46.8,0,0,1-.4,5.1c-.15,2.5.35,4.14,1.47,4.86s3.26,1.17,6.08,1.17,4.7-.28,5.65-.83c.64-.39,1.82-1.7,3.81-5.66a.94.94,0,0,1,.2-.47,44.82,44.82,0,0,0,2.84-13.81q.24-5.88.33-8.79a.48.48,0,0,1,.51-.49.52.52,0,0,1,.49.51c-.06,1.95-.17,4.88-.33,8.81a46,46,0,0,1-2.91,14.14c-.28,3.13,0,5.32.82,6.51s2.59,1.9,5.39,2.18,4.57-.13,5.45-1.3c.19-.28.39-.6.6-.93a.5.5,0,1,1,.85.51c-.21.36-.42.69-.64,1-1.12,1.5-3.26,2.07-6.37,1.72s-5.14-1.18-6.11-2.62a8.61,8.61,0,0,1-1.09-4.86c-1.32,2.39-2.41,3.84-3.33,4.41-1.13.65-3.14,1-6.16,1s-5.22-.43-6.62-1.33a4.23,4.23,0,0,1-1.76-2.83c-1,2.4-2.62,3.63-4.81,3.66-2.71,0-4.75-.05-6-.15a3.67,3.67,0,0,1-2.78-1.3A15.31,15.31,0,0,1,54.26,348,24.3,24.3,0,0,1,46,349.3a11.46,11.46,0,0,1-4.6-1c-.07.23-.15.47-.22.71-.35,1-.72,2-1.11,2.85a12.72,12.72,0,0,1,4.23-.75,9.85,9.85,0,0,1,4.61,1,5.94,5.94,0,0,1,1.06.71c.63.59,1.31,1.28,2.05,2.09a.5.5,0,0,1,0,.71.51.51,0,0,1-.71,0c-.72-.79-1.39-1.47-2-2a5.69,5.69,0,0,0-.87-.57,8.91,8.91,0,0,0-4.14-.84,12.12,12.12,0,0,0-4.91,1.1c-.21.32-.42.64-.63.94a36.93,36.93,0,0,1-2.8,3.2c-1,1.11-1.65,1.86-2.06,2.26l-.3.3A.49.49,0,0,1,33.25,360.1Z" fill="#914f3a"/></g><g id="a657b7cd-db2b-44d8-92e6-8ef924c7ff01" data-name="Layer0 1 FILL"><path d="M134.76,338.12q-3.93,24.42-5.51,31.23a43.64,43.64,0,0,0-.77,9.57q0,.12,1.35,10.51.3,4.56-.11,25.06t-5,115.06L182,531.67Q165.35,426.06,165.23,413.5t-.41-18.44q-.4-5.93,10.74-18.49,9.28-1.69,14.15-7.75.12-.22,3.76-5.52t6.75-9.62a33.49,33.49,0,0,0,3.58-5.46,9.25,9.25,0,0,0,.23-2.7q-.1-1.59,3.47-9t3.34-8.8c0-.31-.84-2.88-2.52-7.69a8.27,8.27,0,0,1-.41-4.93c1.06-3.33,1.58-5,1.58-5.05a1.1,1.1,0,0,0-1.05-1.18H205.5a9.84,9.84,0,0,0-6.45,2.06.75.75,0,0,0-.3.18,5.56,5.56,0,0,0-1.11,1.05c-.11-.5-.2-1-.3-1.47q-1.93-9.19-3.52-12a11.52,11.52,0,0,0-2.88-3.7,3.3,3.3,0,0,0-.41-.29l-.35-.18a6.56,6.56,0,0,0-3-.35,18.05,18.05,0,0,0-2.29.35,77.41,77.41,0,0,0-14.33,4.93,3.89,3.89,0,0,1-.58.24c-.57.3-1.16.59-1.76.88q-8.4.7-15.33,1-5.88.19-7.28,6.63a1.55,1.55,0,0,1-.05.23,20.4,20.4,0,0,0-.3,2.23,5.76,5.76,0,0,0-1.41.24,2.7,2.7,0,0,0-1.88,1.53,16,16,0,0,0-1,5.22c0,.26-.07.52-.12.76q-.31,3.66-.35,6.28v.12c0,1,0,1.83.06,2.59l-.06.05-.59,1q-2.37,3.92-5.11,9.63m61.47-3.52a23.42,23.42,0,0,0-3.88.64,5.13,5.13,0,0,0-2.64,2.64,11.31,11.31,0,0,0-1.23,3.76c-.16,1.18-.3,2.47-.41,3.88a12,12,0,0,1-1,3.17,9.82,9.82,0,0,1-1.94,2.87,11.26,11.26,0,0,1-2.11,2,28,28,0,0,1-6.17,2.41c-2.62,1.13-3.91,2.74-3.87,4.81q0,2-3.11,5.46-3.28,3.66-6.69,4a16,16,0,0,1-2.29,2,16,16,0,0,0,2.29-2,12.44,12.44,0,0,0,3-4.75,17.49,17.49,0,0,0,.65-6.46c-.24-3.45-.79-5.75-1.65-6.93a1,1,0,0,1-.17-.23,3.14,3.14,0,0,1-.47-1.24,6.29,6.29,0,0,1,.23-4.05c.08-.15.16-.29.24-.41a11.91,11.91,0,0,1-1.71.53,15.45,15.45,0,0,1-3.4.24,37.86,37.86,0,0,1-5.4-.59,33.56,33.56,0,0,1-5.11-1.06,33.56,33.56,0,0,0,5.11,1.06,37.86,37.86,0,0,0,5.4.59,15.45,15.45,0,0,0,3.4-.24,11.91,11.91,0,0,0,1.71-.53.7.7,0,0,1,.17-.29,4.88,4.88,0,0,1,1.65-1.59,8,8,0,0,1-.88-.17q-4.81-1.19-6.4-7.58,1.58,6.41,6.4,7.58a8,8,0,0,0,.88.17,6.5,6.5,0,0,0,1.76.12,8.45,8.45,0,0,0,2-.35,8.45,8.45,0,0,1-2,.35,20.12,20.12,0,0,0,.64,3.64,6.2,6.2,0,0,0,1.06,2.7,6.2,6.2,0,0,1-1.06-2.7,20.12,20.12,0,0,1-.64-3.64,6.5,6.5,0,0,1-1.76-.12,4.88,4.88,0,0,0-1.65,1.59.7.7,0,0,0-.17.29c-.08.12-.16.26-.24.41a6.29,6.29,0,0,0-.23,4.05,3.14,3.14,0,0,0,.47,1.24,1,1,0,0,0,.17.23,4.74,4.74,0,0,0,3,1.35,30.17,30.17,0,0,0,7.51,0,9,9,0,0,0,6.93-4.81,14.94,14.94,0,0,0,1.64-8.75v-.12q-.52-7.86-3.81-10.33-.65-.53-4.94-1.53-3.75-.93-15.32-4.81-9.74-3.34-11.33-3.34c-1.7,0-3.7,1.44-6,4.34,2.29-2.9,4.29-4.34,6-4.34q1.59,0,11.33,3.34,11.56,3.87,15.32,4.81,4.29,1,4.94,1.53,3.28,2.47,3.81,10.33c1.68-.43,3-2.21,3.88-5.34.23-.86.43-1.68.58-2.46a16.91,16.91,0,0,0,.36-4.23q-.42-6.81-2.71-10.8t-5.51-4.23q-10.75-1.11-11.63-1.23-11.26-1-20.13-1h0q8.86,0,20.13,1,.89.12,11.63,1.23,3.35.3,5.51,4.23t2.71,10.8a16.91,16.91,0,0,1-.36,4.23,9.28,9.28,0,0,0,7.75-2.47,26.22,26.22,0,0,1-1.47-7.75,15.61,15.61,0,0,1,.77-6.4q-3.93-11-5.81-13.26t-9.34-2.24q-3,0-10,.53,7-.53,10-.53,7.45,0,9.34,2.24t5.81,13.26a9.67,9.67,0,0,1,1.64-2.93,9.67,9.67,0,0,0-1.64,2.93,15.61,15.61,0,0,0-.77,6.4,26.22,26.22,0,0,0,1.47,7.75,11.78,11.78,0,0,0,.77,1.59,5.55,5.55,0,0,0,1.82,2.05,3.1,3.1,0,0,0,1.17.41,3.1,3.1,0,0,1-1.17-.41A5.34,5.34,0,0,1,196.23,334.6Z" fill="url(#b4013933-eb2f-4512-9aa9-7f953f79d780)"/><path d="M163,370.09a12.28,12.28,0,0,0,2.95-4.68,17.25,17.25,0,0,0,.64-6.38c-.23-3.39-.77-5.68-1.61-6.82l.31-.25a4.58,4.58,0,0,0,2.87,1.28,21.83,21.83,0,0,0,3.38.24,38.21,38.21,0,0,0,4.09-.24,8.78,8.78,0,0,0,6.77-4.71,14.82,14.82,0,0,0,1.62-8.64v-.28l.15,0c1.6-.41,2.86-2.16,3.73-5.2.24-.86.43-1.68.59-2.45l0-.18.19,0a11.57,11.57,0,0,0,1.3.07,9,9,0,0,0,6.29-2.49l.21-.19.11.27a11.2,11.2,0,0,0,.75,1.55,5.47,5.47,0,0,0,1.75,2l.2.13-.16.17a5.4,5.4,0,0,1-2.92,1.53,23.75,23.75,0,0,0-3.85.64,4.88,4.88,0,0,0-2.53,2.55,11.13,11.13,0,0,0-1.21,3.69c-.16,1.17-.3,2.47-.41,3.86a12.22,12.22,0,0,1-1,3.24,10.09,10.09,0,0,1-2,2.93,11.6,11.6,0,0,1-2.15,2,28.19,28.19,0,0,1-6.22,2.43c-2.54,1.1-3.77,2.61-3.73,4.62,0,1.39-1,3.22-3.16,5.59s-4.51,3.84-6.82,4.06l-.55.05Z" fill="#e3a557"/></g><g id="ad115a46-58c9-4020-8a64-573db116b4a0" data-name="Layer0 1 1 STROKES"><path d="M160.86,372.67a.52.52,0,0,1-.4-.21.51.51,0,0,1,.11-.7,16.49,16.49,0,0,0,2.25-1.91,12.33,12.33,0,0,0,2.85-4.6,16.62,16.62,0,0,0,.62-6.26c-.22-3.3-.74-5.53-1.52-6.64a1,1,0,0,1-.24-.33,3.44,3.44,0,0,1-.52-1.37,7.2,7.2,0,0,1,0-3.7l-.67.17a16.17,16.17,0,0,1-3.5.25,37.73,37.73,0,0,1-5.48-.6,33.85,33.85,0,0,1-5.19-1.07.52.52,0,0,1-.32-.64.5.5,0,0,1,.64-.31,32.66,32.66,0,0,0,5,1,37.28,37.28,0,0,0,5.33.59,14.59,14.59,0,0,0,3.27-.22,11.48,11.48,0,0,0,1.47-.45,1.08,1.08,0,0,1,.18-.24,6,6,0,0,1,.81-1c-3.28-.87-5.49-3.53-6.57-7.89a.5.5,0,0,1,.36-.6.51.51,0,0,1,.61.36c1,4.11,3,6.47,6,7.21.3.07.57.13.83.17h0a6.31,6.31,0,0,0,1.61.1h0a7.94,7.94,0,0,0,1.87-.33.5.5,0,1,1,.3,1,9.26,9.26,0,0,1-1.6.33,20.72,20.72,0,0,0,.58,3.05c.45,1.89.79,2.35.91,2.46a.5.5,0,0,1,0,.7.5.5,0,0,1-.71,0c-.3-.26-.71-.84-1.21-2.95a21.93,21.93,0,0,1-.61-3.24,8.12,8.12,0,0,1-1.21-.11,4.41,4.41,0,0,0-1.32,1.33c-.09.1-.11.13-.12.18v0h0l0,.06a2,2,0,0,0-.2.36,5.78,5.78,0,0,0-.2,3.71,2.57,2.57,0,0,0,.4,1.07.58.58,0,0,0,.11.15v0h0a4.3,4.3,0,0,0,2.68,1.19,29.76,29.76,0,0,0,7.39,0,8.39,8.39,0,0,0,6.55-4.56,14.52,14.52,0,0,0,1.58-8.47v-.13c-.34-5.06-1.56-8.41-3.62-10-.18-.15-1-.56-4.74-1.44-2.52-.63-7.68-2.25-15.37-4.83-8-2.74-10.49-3.32-11.17-3.32-1.54,0-3.42,1.4-5.6,4.16a.49.49,0,0,1-.7.08.5.5,0,0,1-.08-.7c2.41-3.05,4.49-4.54,6.38-4.54,1.12,0,4.88,1.11,11.49,3.38,7.66,2.56,12.8,4.18,15.28,4.8,3.89.91,4.79,1.34,5.13,1.62,2.22,1.67,3.52,4.95,4,10,1.22-.63,2.21-2.23,2.94-4.78.23-.83.42-1.65.58-2.42a16.29,16.29,0,0,0,.34-4.1c-.27-4.44-1.15-8-2.63-10.58s-3.06-3.8-5.13-4c-7.37-.77-11.06-1.16-11.65-1.24-7.43-.65-14.19-1-20.07-1q-.94,0-1.74,0a.53.53,0,0,1-.52-.48.5.5,0,0,1,.49-.52q.81,0,1.77,0c5.91,0,12.7.34,20.18,1,.59.08,4.39.48,11.64,1.23,2.38.21,4.37,1.72,5.9,4.49s2.48,6.41,2.76,11a16.85,16.85,0,0,1-.26,3.81,8.67,8.67,0,0,0,6.57-2.16,27.49,27.49,0,0,1-1.38-7.58,16.43,16.43,0,0,1,.73-6.43c-2.56-7.16-4.46-11.52-5.66-12.94s-4.16-2.06-8.95-2.06c-2,0-5.35.19-10,.56a.5.5,0,0,1-.54-.46.51.51,0,0,1,.46-.54c4.65-.37,8-.56,10.05-.56,5.17,0,8.35.79,9.71,2.41s3,5.47,5.47,12.22a10.12,10.12,0,0,1,1.22-1.86.5.5,0,0,1,.77.65,8.83,8.83,0,0,0-1.55,2.75h0a15.14,15.14,0,0,0-.73,6.19,25.55,25.55,0,0,0,1.43,7.59h0a10.63,10.63,0,0,0,.72,1.51,5.16,5.16,0,0,0,1.68,1.88,2.67,2.67,0,0,0,.95.35.49.49,0,0,1,.43.56.51.51,0,0,1-.56.43,3.79,3.79,0,0,1-1.34-.48,6.17,6.17,0,0,1-2-2.23,10.58,10.58,0,0,1-.52-1,9.73,9.73,0,0,1-7.16,2.18c-.14.66-.31,1.35-.5,2.05-.89,3.07-2.18,4.94-3.85,5.57a15.23,15.23,0,0,1-1.73,8.76,9.45,9.45,0,0,1-7.29,5.06,31.31,31.31,0,0,1-7.65,0,7.63,7.63,0,0,1-1.68-.43,23.06,23.06,0,0,1,.9,5.47,17.85,17.85,0,0,1-.67,6.65,13.37,13.37,0,0,1-3.07,5h0a17.79,17.79,0,0,1-2.39,2A.45.45,0,0,1,160.86,372.67Z" fill="#de9841"/></g><g id="aa5b9c2f-f537-4d16-98f3-f63efe99368e" data-name="Layer0 2 FILL"><path d="M127.85,426.75a5.4,5.4,0,0,0,1.7,1v-3.3c-1.85.69-2.41,1.45-1.7,2.3m40.9-1.2a2.12,2.12,0,0,0-1.1-1.45,3.28,3.28,0,0,0-1.6-.45l.45,3.65C168.1,426.57,168.85,426,168.75,425.55Z" fill="#e072d1"/><path d="M167.65,424.1a2.12,2.12,0,0,1,1.1,1.45c.1.43-.65,1-2.25,1.75L165,428q-4.91,1.88-18.4,1.85a76.41,76.41,0,0,1-12.3-.85,25.25,25.25,0,0,1-4.75-1.2,5.4,5.4,0,0,1-1.7-1c-.71-.85-.15-1.61,1.7-2.3l0-2.3a26.55,26.55,0,0,0-2.35,1.55,4.29,4.29,0,0,0-1.8,3.05c0,.23,0,.43,0,.6a1.77,1.77,0,0,0,.45.85q1.43,1.37,6.6,2.35a74.16,74.16,0,0,0,13.9,1.15q15.19,0,20.7-2.4c2.85-1.27,4.24-2.52,4.15-3.75v-.05a.88.88,0,0,0,0-.4,7.55,7.55,0,0,0-1.25-1.55q-1.08-1.19-4.05-1.5l.2,1.6A3.28,3.28,0,0,1,167.65,424.1Z" fill="#ffbdf5"/><path d="M167.05,429.3q-5.51,2.42-20.7,2.4a74.16,74.16,0,0,1-13.9-1.15q-5.17-1-6.6-2.35a1.77,1.77,0,0,1-.45-.85q-.95,28.88-2,45.6t-4.05,56.85h65q-10.76-79.11-13.1-104.25C171.29,426.78,169.9,428,167.05,429.3Z" fill="#f691e8"/></g><g id="b599ea94-f28c-4ec9-9519-b9bc9aec3ad0" data-name="Layer0 3 FILL"><path d="M250.45,421.3a58.13,58.13,0,0,1-6.22-.25c-2.59-.37-4-.55-4.28-.55l-1.65-.05a4.71,4.71,0,0,1-1.59-.42,3,3,0,0,1-1.81-2.35,2.75,2.75,0,0,1,.87-2.78,4.91,4.91,0,0,1,2.91-1.1h.5a18.29,18.29,0,0,1,2.3.16c1.19.17,2.09.29,2.69.35a53.28,53.28,0,0,0,5.33.2l4.52,0c2.76,0,5,0,6.82-.13A65.88,65.88,0,0,0,272,413a11,11,0,0,1,2.18-.29,2.78,2.78,0,0,1,.82.1,2.84,2.84,0,0,1,1.71,1.23,3.07,3.07,0,0,1,.53,2,3.82,3.82,0,0,1-2.05,2.8,11,11,0,0,1-3.26,1,79.94,79.94,0,0,1-10.73,1.2C258.52,421.23,254.9,421.3,250.45,421.3Zm14.6-29.7a2.07,2.07,0,0,1-2-.91,3.16,3.16,0,0,1-.22-1.44,8.57,8.57,0,0,1,2-5c1.33-1.69,2-2.93,2-3.68,0-.9-.63-1.46-1.94-1.7a29,29,0,0,0-3.91-.15c-1.64,0-5,.84-10,2.49a62.33,62.33,0,0,1-18.81,2.46,61.41,61.41,0,0,1-6.94-1.2,47.1,47.1,0,0,0-8.16-1.25c-.28,0,.72,1.2.41,1.29l-1.09.68-.67-3.85c-.2-1.85-.18-2-.35-4l-.2-2.3c0-.45,0-.88-.05-1.3,0-.17,0-2.1,0-2.22l.37,1.66c.07.14.14.29.21.47.19.46.39.9.59,1.34.3.62.6,1.21.89,1.73.23.32.45.64.65.94.75,1,2.12,1.51,4.08,1.51a13.67,13.67,0,0,0,1.63-.1c2.89-.29,4.78-1.07,5.6-2.31s1.17-3.54.87-6.77l0-.55.39.39a.65.65,0,0,1,.21.49c1.62,3.19,3,5.17,3.95,5.78s3,.87,5.8.87,5-.41,6.24-1.22,1.77-2.53,1.61-5.17l.4-.05c.75,4,2.37,5.91,4.95,5.94s4.7-.05,6-.15a2.79,2.79,0,0,0,2.54-1.44l.12-.23.19.17a14.52,14.52,0,0,0,4.84,2.71,23.53,23.53,0,0,0,8,1.29,10.85,10.85,0,0,0,4.81-1.13l.21-.1.07.22c.13.4.27.82.4,1.25a25,25,0,0,0,1.64,3.92l.27.51-.53-.24a12.57,12.57,0,0,0-5.17-1.18,9.44,9.44,0,0,0-4.31.88,14.43,14.43,0,0,0-2.52,2.87,23.66,23.66,0,0,0-1.43,3.17,20.2,20.2,0,0,1-1.6,3.12C266.42,391.1,265.75,391.6,265.05,391.6Z" fill="#f6a889"/><path d="M237.9,334.2q-7.05,1-9.1,3.45a8.3,8.3,0,0,0-1.9,4.25c0,.33-.05.7-.05,1.1s0,.65.05,1.05c-.27-.63-1-1.05-2.15-1.25a14.66,14.66,0,0,0-3.7-.05c-3.43.27-5.93,1.13-7.5,2.6a8.84,8.84,0,0,0-2.65,5.55,34.41,34.41,0,0,0,1.3,9.8c1,3.93,1.82,7,2.55,9.25l.2.5c.1.3.2.58.3.85s.13.28.2.45q.3.71.6,1.35c.3.63.6,1.22.9,1.75l.65.95q1.5,2,5.9,1.5c3-.3,4.88-1.1,5.75-2.4s1.2-3.6.9-6.9a.49.49,0,0,1,.15.35c1.67,3.33,3,5.32,4,5.95s3,.9,5.9.9,5.05-.42,6.35-1.25,1.87-2.62,1.7-5.35c.77,4,2.48,6.07,5.15,6.1s4.7-.05,6-.15a3,3,0,0,0,2.7-1.55,14.54,14.54,0,0,0,4.9,2.75,23.65,23.65,0,0,0,8.1,1.3,11,11,0,0,0,4.9-1.15c.13.4.27.82.4,1.25a26,26,0,0,0,1.65,4,12.67,12.67,0,0,0-5.25-1.2,9.57,9.57,0,0,0-4.4.9,14.56,14.56,0,0,0-2.6,2.95,22.82,22.82,0,0,0-1.45,3.2c-.93,1.93-1.45,2.95-1.55,3.05-.57.93-1.17,1.4-1.8,1.4-1,0-1.58-.27-1.85-.8a3.09,3.09,0,0,1-.2-1.35,8.34,8.34,0,0,1,2-4.85c1.37-1.73,2.05-3,2.05-3.8,0-1-.7-1.63-2.1-1.9a29.81,29.81,0,0,0-3.95-.15q-2.5,0-10.1,2.5a61.93,61.93,0,0,1-18.75,2.45,62.11,62.11,0,0,1-6.9-1.2,47.53,47.53,0,0,0-8.2-1.25,3.29,3.29,0,0,0-1,.15q1.69,13.5,5.85,21.2,5.55,10.25,6.8,13.85t1.4,16.65v17.75q-.26,35.6-5.8,83.05L289.2,536q0-14.15-3.8-65.45-3.5-47.85-4.6-54.4a.51.51,0,0,0,0-.3q0-4.24,4.3-6.2,2.89-.9,5.25-1.75a29.61,29.61,0,0,0,8-4.05,6.22,6.22,0,0,0,.7-.6q2.65-2.25,3.1-3.55l.45-5.3q1.2-15.45-1.35-26.9-2.06-9-3.75-9a17.12,17.12,0,0,0-3.8,1l-.15.05-.9.3a14.31,14.31,0,0,1-1.7.45c.1-.63.18-1.28.25-1.95a85.85,85.85,0,0,0,.4-13.35q-.3-8.44-6.8-8.45a63.33,63.33,0,0,0-7.15,0,10.16,10.16,0,0,0-5.2,1.3,3.42,3.42,0,0,0-1.55,3c0-1.2-.1-2.38-.2-3.55-.07-.87-.15-1.73-.25-2.6a4.63,4.63,0,0,0-3.7-3c-1.53-.17-4.42-.25-8.65-.25s-7,1.27-8.55,3.8a.16.16,0,0,1-.05.1,7.22,7.22,0,0,0-.75,2.5,5.81,5.81,0,0,0-1.35-2.4,6.36,6.36,0,0,0-.8-.85q-1.54-1.35-8.7-.35m34.15,79a6.58,6.58,0,0,1,2.9-.2,2.65,2.65,0,0,1,1.6,1.15,2.81,2.81,0,0,1,.5,1.9,3.6,3.6,0,0,1-1.95,2.65,10.79,10.79,0,0,1-3.2,1,79.28,79.28,0,0,1-10.7,1.2q-4.05.19-10.75.2a55.16,55.16,0,0,1-6.2-.25c-2.6-.37-4-.55-4.3-.55l-1.65-.05a4.54,4.54,0,0,1-1.5-.4,2.76,2.76,0,0,1-1.7-2.2,2.54,2.54,0,0,1,.8-2.6,4.67,4.67,0,0,1,2.8-1.05,17.53,17.53,0,0,1,2.75.15c1.2.17,2.1.28,2.7.35,1.2.13,3,.2,5.35.2,4.9.07,8.68,0,11.35-.1A66.13,66.13,0,0,0,272.05,413.2Z" fill="url(#b3c605c7-67d4-4d4f-bb54-106529988d3f)"/></g><g id="e9eb0159-b21c-4e2d-a59c-7fbfb4f9c6b1" data-name="Layer0 3 MEMBER 0 1 STROKES"><path d="M287.9,388.35a.52.52,0,0,1-.35-.14l-.3-.31c-.41-.4-1.11-1.17-2.08-2.27a34.55,34.55,0,0,1-2.78-3.2c-.21-.29-.42-.61-.63-.93a12.12,12.12,0,0,0-4.91-1.1,9.13,9.13,0,0,0-4.17.84c-.29.18-.59.39-.87.6-.56.53-1.22,1.21-1.94,2a.5.5,0,0,1-.71,0,.51.51,0,0,1,0-.71c.74-.8,1.42-1.5,2-2.07a8.35,8.35,0,0,1,1-.72,10.13,10.13,0,0,1,4.66-1,12.72,12.72,0,0,1,4.23.75,29.6,29.6,0,0,1-1.1-2.84c-.08-.25-.16-.49-.23-.72a11.46,11.46,0,0,1-4.6,1,24.44,24.44,0,0,1-8.27-1.33,15.37,15.37,0,0,1-4.61-2.47,3.67,3.67,0,0,1-2.78,1.3c-1.3.1-3.34.15-6,.15-2.19,0-3.81-1.26-4.82-3.68a4.22,4.22,0,0,1-1.76,2.85c-1.4.9-3.56,1.33-6.62,1.33s-5-.32-6.15-1c-.93-.57-2-2-3.34-4.41a8.52,8.52,0,0,1-1.1,4.86c-1,1.44-3,2.3-6.11,2.62s-5.24-.22-6.35-1.7c-.21-.32-.43-.63-.66-1a.5.5,0,1,1,.82-.58l.66,1c.86,1.15,2.69,1.6,5.42,1.28s4.62-1,5.39-2.18,1.11-3.38.83-6.51A46,46,0,0,1,226.75,354c-.17-3.93-.28-6.87-.35-8.8a.5.5,0,0,1,.48-.52.51.51,0,0,1,.52.48c.07,1.93.18,4.87.35,8.8a45.12,45.12,0,0,0,2.84,13.81.94.94,0,0,1,.2.47c2,4,3.17,5.27,3.82,5.66.94.55,2.84.83,5.64.83s4.87-.39,6.08-1.17,1.62-2.37,1.47-4.89h0a43.42,43.42,0,0,1-.4-5.06c-.13-2.8-.12-7.37,0-13.58.13-5.46.35-9.32.65-11.46a.51.51,0,0,1,.57-.43.52.52,0,0,1,.43.57c-.3,2.1-.52,5.92-.65,11.34-.17,6.19-.18,10.74,0,13.52a38.21,38.21,0,0,0,.39,5v0c.72,3.8,2.25,5.66,4.67,5.69,2.67,0,4.67-.05,6-.15a2.67,2.67,0,0,0,2.11-1,9.43,9.43,0,0,1-2.37-5.94c-.41-5.1.9-8.47,3.92-10a.49.49,0,0,1,.34-.05c1.07.24,2.73.69,4.94,1.36l1.07.33a175.38,175.38,0,0,0,1-17.95.5.5,0,0,1,1,0,175.37,175.37,0,0,1-1,18.23,44.94,44.94,0,0,0,11.16,1.57,49.44,49.44,0,0,0,7.92-.54.5.5,0,0,1,.57.41.49.49,0,0,1-.41.57,50.09,50.09,0,0,1-8.08.56,46.51,46.51,0,0,1-11.82-1.71h0l-1.64-.5c-2.05-.63-3.63-1.06-4.68-1.3-2.51,1.4-3.59,4.42-3.22,9a8.2,8.2,0,0,0,2.33,5.56h0a14.26,14.26,0,0,0,4.72,2.65,23.49,23.49,0,0,0,7.94,1.27,10.63,10.63,0,0,0,4.67-1.09h0a14.92,14.92,0,0,0,3.42-2.37.5.5,0,1,1,.68.74,16.32,16.32,0,0,1-3.28,2.33l.27.85a25.54,25.54,0,0,0,1.6,3.85c.23.35.45.69.68,1a33.41,33.41,0,0,0,2.71,3.1c1,1.09,1.64,1.84,2,2.24l.3.29a.5.5,0,0,1-.35.86Z" fill="#ee8054"/></g><g id="bcaebf93-4317-42a0-909a-c1aabd3c1fc1" data-name="Layer0 4 FILL"><path d="M249.09,472.7l-25.6,1.3-6.19,63.6,79.64,2.7-7.45-69.8q-10.86.66-40.4,2.2m42.7-21.9q-1.26-9.26-1.75-12.45-3.8.15-11.9.55-14.47.64-35.57.65-16,0-21-.2-.27,5.2-.77,17.15-.27,7.31-.44,10.45l3.84-.05q23.1-.34,46.92-.85,10-.19,17.87-.75c1.49-.11,2.92-.23,4.28-.35Q292,452.76,291.79,450.8Z" fill="#a8ecff"/><path d="M223.49,474l25.6-1.3q29.53-1.53,40.4-2.2l-.55-5.2q-7.85.56-17.87.75-23.82.51-46.92.85Z" fill="#75d5ef"/></g><g id="a3a1daab-4171-4ddd-8797-4c2a9fee34be" data-name="Layer0 5 FILL"><path d="M389.6,525.4c-11.68-.23-20.48-.43-26.16-.6s-19.55-.52-40.84-.95h-.2v-.2c.27-12.78.89-23.79,1.85-32.72s2.12-22.29,3.35-39.84c.27-2.57.62-11.45,1-26.4q0-.4,0-.84v-.2h.21c12.39,0,25.55-.73,39.13-2,4.07-.4,8.27-.84,12.5-1.3l.2,0,0,.2c.6,6.35,1.61,16.73,3,30.85q.9,9.45,1.6,16.45c1.16,11.42,1.88,18.36,2.15,20.65.47,4.3.9,8.71,1.3,13.1a40.93,40.93,0,0,0,.3,4.15c.4,6.31.65,12.88.75,19.52v.2Zm-34-118.84c-.67,0-1.22,0-1.62-.06h0a1.74,1.74,0,0,1-.87-.23,1.1,1.1,0,0,1-.5-.92,1.18,1.18,0,0,1,.55-.87,1.72,1.72,0,0,1,1.05-.23l2.06,0a19,19,0,0,0,2.66-.13,5.83,5.83,0,0,1,1.28-.2h1.4l1.23-.15a1.52,1.52,0,0,1,1.33.58.89.89,0,0,1-.07,1.31,2.17,2.17,0,0,1-1.11.41l-4,.35C357.61,406.53,356.48,406.56,355.6,406.56ZM353.85,403c-.58,0-1.07,0-1.46,0-4.88-.16-7.85-.31-8.82-.45-2.14-.28-3.22-1-3.22-2.25,0-.32.15-.75.89-1l1-.25h3.85c1.28,0,3.2.13,5.71.3a104,104,0,0,0,14.66-.9c5.62-.81,6.47-.9,6.63-.9.92,0,1.45.14,1.66.43.07.11.14.31.14,1,0,1-1.06,1.73-3.25,2.29-.61.14-2.4.42-5.47.86a79.18,79.18,0,0,1-10.28.85Zm4.23-34.69c-1.06,0-2-.71-2.66-2.1-1.26-2.55-2.32-4.74-3.15-6.51a14.22,14.22,0,0,0-3.87-3.26,29.21,29.21,0,0,0-9.29-3.57v-.39c2-.55,3.33-1.2,3.84-1.92l.09-.14.15.07a9.81,9.81,0,0,0,4,.78c.38,0,.76,0,1.15-.05a29.67,29.67,0,0,0,5.91-1.29,6.07,6.07,0,0,0,3.88-3.34l0-.17V346l.3.19a17.17,17.17,0,0,0,6.43,1.92,30.22,30.22,0,0,0,3.53.4,16.46,16.46,0,0,0,3.25-1.23c.71-.3,1.37-.6,2-.9.06-.79.15-1.56.24-2.29l0-.36.27.22a6.57,6.57,0,0,0,1.56.93,16.24,16.24,0,0,0,1.88.18l1.8.1h.4a24.2,24.2,0,0,0,4.45-.46c.62-.18,1.19-.34,1.7-.47.45-.94.91-2,1.35-3.15.14-.37.29-.74.46-1.11.32-1,.69-2.17,1.09-3.33l.45-1.79.3-1.1c.06-.27.15-.58.25-.95l.23-2.31c.1.44.37,3.28.51,3.92q.09.42.15.81c.4,1.81.74,3.61,1,5.35.05.5.3,3.89.35,4.33-1.5,3.8-2.61,2.95-3,3.51-.74,1-2.34,1.64-4.75,1.84-1.66.13-3.55.2-5.62.2h-4.3a64.59,64.59,0,0,0-12.7,1.79c-5.11,1.31-7.7,2.89-7.7,4.71,0,.19.35,1,3.55,4.36,2.51,2.62,3.82,4.2,4,4.84l0,.11-.09.08C360.25,367.65,359.09,368.29,358.08,368.29Z" fill="#603b2e"/><path d="M320.55,313.65a40.9,40.9,0,0,0-.15,10.45l.05,0c0,.47.08.93.15,1.4a16,16,0,0,0,.4,1.85l-1.85.25c-2.69.5-4.34,1.09-4.95,1.75q-2.7,3-6.2,14.15c-.2.63-.42,1.3-.65,2-.13.5-.27,1-.4,1.4q-3,9.9-3.95,14.75,1.85,6.56,9.55,14.1t11.5,11.5a52,52,0,0,1,3.7,6.8c.5,2.93,1,5.57,1.5,7.9.1.36-.24,8.49-.6,22.69,12.44,0,25.7-1.56,39.35-2.89,4-.4,8.44-.46,12.74-.93-.33-3.62-.77-6.34-.84-7.42q1.55-13.8,1.7-14.85a17.21,17.21,0,0,1,2.1-3.2,42.4,42.4,0,0,0,5-9.35q1.5-4.35,3.3-10.1t2.9-10.35q-.75-6.3-2.95-21.7a4.2,4.2,0,0,1-.1-.85.6.6,0,0,1-.05-.4c0-.19-.06-.39-.1-.6a61.65,61.65,0,0,1-2.75,6.3q-1.05,1.45-4.6,1.75c-1.67.13-3.53.2-5.6.2h-4.3a64.24,64.24,0,0,0-12.75,1.8q-7.84,2-7.85,4.9,0,.71,3.6,4.5c2.47,2.57,3.78,4.15,3.95,4.75q-3.84,3.75-5.8-.15c-1.27-2.57-2.32-4.73-3.15-6.5a14.15,14.15,0,0,0-3.95-3.35,29.63,29.63,0,0,0-9.35-3.6c2.1-.57,3.42-1.23,4-2a10.53,10.53,0,0,0,5.25.75,30.08,30.08,0,0,0,5.95-1.3,6.21,6.21,0,0,0,4-3.45v-.25a17.29,17.29,0,0,0,6.5,2,30.32,30.32,0,0,0,3.55.4,16,16,0,0,0,3.35-1.25c.7-.3,1.37-.6,2-.9a.16.16,0,0,1,.1-.05c.07-.83.15-1.63.25-2.4a6.38,6.38,0,0,0,1.6,1h.1a11.2,11.2,0,0,0,1.85.2l1.8.1a24.19,24.19,0,0,0,4.9-.45c.67-.2,1.27-.37,1.8-.5.47-1,.93-2.05,1.4-3.25.13-.37.28-.73.45-1.1.33-1.07.7-2.18,1.1-3.35.15-.59.3-1.18.45-1.8l.3-1.1c.07-.27.15-.58.25-1a2.54,2.54,0,0,1,.25-.75,4,4,0,0,0,.05-.5c.12-.48.25-1,.4-1.5q2.75-11.7,1.85-13.75a21.72,21.72,0,0,0-12.05-4.25l-4.65.3c0-.5,0-1,0-1.55s0-1.34-.05-2q-1.24-1.65-5-2.1a64.9,64.9,0,0,0-7.65-.25,17.59,17.59,0,0,0-2.5.25.51.51,0,0,1-.3,0,1.73,1.73,0,0,0-.3.1.23.23,0,0,1-.2,0l-.5.1a4.49,4.49,0,0,0-1.3.6c0-.57.05-1.08.05-1.55q.25-2.25-2.4-2.7-2.51-.15-4.95-.15a59.5,59.5,0,0,0-10.95.65l-1,.2c-1.37.33-2,1.35-1.85,3.05,0,.48.08.89.1,1.25.07.76.1,1.28.1,1.55a17.23,17.23,0,0,0-1.75.15,1,1,0,0,0-.3-.05h-.5c-1.59.09-3.77.28-6.55.55q-7.65.71-7.5,3.15m54.05,84.4a2.18,2.18,0,0,1,.1.9c0,.87-1,1.57-3.1,2.1-.6.13-2.42.42-5.45.85a78.86,78.86,0,0,1-10.25.85c-1.56,0-2.73,0-3.5,0-4.9-.16-7.84-.31-8.8-.45-2-.27-3.05-.95-3.05-2.05,0-.37.25-.63.75-.8l1-.25h3.8q1.9,0,5.7.3a104.65,104.65,0,0,0,14.7-.9q6.25-.9,6.6-.9c.83,0,1.33.12,1.5.35m-20.4,6.4a31.1,31.1,0,0,0,4.75-.1,5.7,5.7,0,0,1,1.25-.2h1.4l1.25-.15a1.31,1.31,0,0,1,1.15.5.7.7,0,0,1-.05,1.05,2,2,0,0,1-1,.35l-4,.35a36.15,36.15,0,0,1-4.95.05,1.61,1.61,0,0,1-.8-.2.9.9,0,0,1-.4-.75,1,1,0,0,1,.45-.7A1.63,1.63,0,0,1,354.2,404.45Z" fill="url(#f10c0a8f-98c0-414b-a6f8-956f45a78f44)"/></g><g id="a1a44899-22b0-457d-a377-2c6478ed6d2a" data-name="Layer0 5 MEMBER 0 1 STROKES"><path d="M352.45,360.1a.51.51,0,0,1-.39-.19,13.77,13.77,0,0,0-3.81-3.23,29.15,29.15,0,0,0-9.16-3.53H339a58,58,0,0,0-6.39-.89l-7.82-.15a.49.49,0,0,1-.43-.27.47.47,0,0,1,0-.51c.77-1.14.9-2.76.41-4.81a5,5,0,0,1-2.58-.88.51.51,0,0,1-.05-.71.51.51,0,0,1,.71-.05,4.35,4.35,0,0,0,2.36.68h.08a11.56,11.56,0,0,0,2.55.09,34.74,34.74,0,0,0,12.26-2.57.47.47,0,0,1,.17,0,.14.14,0,0,0,.09-.05l.14-.07h0a30,30,0,0,0,2.89-1.16c2.26-1.89,3.35-5,3.22-9.31-.15-5.06-1-6.75-1.8-7.25l-5.54.64h0c-8.55.92-13.94,1.52-16.14,1.77a.51.51,0,0,1-.56-.44.5.5,0,0,1,.44-.55q3.24-.37,15.63-1.72c-.29-1.69-.43-2.6-.47-2.85l-.2-1.39c-.6-3.8-1-6.95-1.25-9.35a.5.5,0,0,1,1-.09c.22,2.37.64,5.5,1.24,9.29l.21,1.41c0,.24.18,1.2.46,2.87l5.23-.6a.52.52,0,0,1,.28.05c1.53.76,2.34,3.44,2.48,8.19s-1.08,8.05-3.63,10.15a.39.39,0,0,1-.11.06c-.81.38-1.68.74-2.6,1.07.38,1.38,1.06,3.55,2,6.47l0,0a10.29,10.29,0,0,0,4.95.68,28.52,28.52,0,0,0,5.83-1.28,5.68,5.68,0,0,0,3.66-3.08v-.13c0-1.71-.07-3.92-.1-6.65a6.4,6.4,0,0,1,.05-.73c0-.92-.05-2-.05-3.08,0-2.86-.05-6.1-.05-9.7-.09-7.4-.12-13.18-.1-17.15a.53.53,0,0,1,.5-.5.5.5,0,0,1,.5.5c0,4,0,9.74.1,17.14q0,5.42.05,9.7c0,1.1,0,2.15.05,3.14,0,.3-.05.49-.05.67q0,3.87.09,6.36a17.6,17.6,0,0,0,6.08,1.74,29.23,29.23,0,0,0,3.43.4,16,16,0,0,0,3.18-1.2c.66-.28,1.27-.55,1.85-.83.06-.73.13-1.45.22-2.13v0c.13-.8.26-1.58.4-2.35a12.15,12.15,0,0,1,.09-1.58c.24-2,.44-3.82.6-5.48.53-5.1.82-8.68.85-10.66.06-3.24,0-6.63-.05-10.1a.49.49,0,0,1,.49-.51.51.51,0,0,1,.51.48c.09,3.48.11,6.9.05,10.15,0,2-.32,5.62-.85,10.74-.17,1.67-.37,3.5-.6,5.51a10.77,10.77,0,0,0-.1,1.54c-.12.75-.24,1.44-.36,2.14a5.65,5.65,0,0,0,1.17.66h.1a10,10,0,0,0,1.76.19l1.8.1a24.71,24.71,0,0,0,4.79-.44c.54-.17,1.06-.31,1.54-.44.43-.9.86-1.91,1.28-3,.14-.37.29-.75.47-1.13.31-1,.68-2.13,1.08-3.3l.43-1.76a.5.5,0,1,1,1,.24l-.45,1.8c-.41,1.2-.78,2.32-1.11,3.38-.19.41-.33.77-.46,1.12-.47,1.22-1,2.32-1.42,3.3a.53.53,0,0,1-.33.27c-.53.13-1.12.29-1.78.49a24.59,24.59,0,0,1-5.05.47l-1.82-.1a11.89,11.89,0,0,1-1.88-.2,1.2,1.2,0,0,1-.23,0,5.68,5.68,0,0,1-1-.52c-.06.5-.11,1-.15,1.55a.51.51,0,0,1-.33.43l-.05,0c-.64.3-1.32.61-2,.91a17,17,0,0,1-3.44,1.28h-.14a31.6,31.6,0,0,1-3.61-.41,19.26,19.26,0,0,1-6.09-1.69,6.8,6.8,0,0,1-4.16,3.43,31.25,31.25,0,0,1-6,1.32,11.39,11.39,0,0,1-5.16-.65,6.17,6.17,0,0,1-2.26,1.34,27.94,27.94,0,0,1,7.78,3.24,14.53,14.53,0,0,1,4.07,3.46.49.49,0,0,1-.08.7A.51.51,0,0,1,352.45,360.1Zm-26.82-9,7,.13a58.32,58.32,0,0,1,6.46.89,8,8,0,0,0,3.31-1.48h0c-1-3-1.65-5.18-2.06-6.6a35.17,35.17,0,0,1-12.47,2.59,12.43,12.43,0,0,1-2,0A7.36,7.36,0,0,1,325.63,351.12Z" fill="#452318"/></g><g id="e8b8ad04-7622-4cc1-8928-faccea453fdd" data-name="Layer0 6 FILL"><path d="M338.11,455.26c4.18.13,8,1.91,10.84,1.74,3.19-.2,9.12-.71,16.41-1.74,6-.87,10.68.25,15.21.25,3.13,0,5.07-5.33,7-4.06q-.51-2.55-1.06-5.1-32.3,2.29-62.58,1.45-1,4.59-1.91,9.2c2.27-2.46,5.12-1.53,8.27-1.87A72.15,72.15,0,0,1,338.11,455.26Z" fill="#f8b036"/><path d="M348.43,452.7c-2.83.17-6.34.18-10.51.05a61.49,61.49,0,0,0-7.81.05A12.63,12.63,0,0,0,322,457a345.59,345.59,0,0,0-5.74,74.65h81.49a529.26,529.26,0,0,0-10.2-80.2,13.33,13.33,0,0,0-7.54-1.9,112.27,112.27,0,0,0-15.83,1.3Q353.21,452.4,348.43,452.7Z" fill="#ffbf52"/><path d="M386,436.3q-.75-5.4-1.38-9.2-5.26-.15-14.34-.2-26.83-.15-44.63,1.5a55.31,55.31,0,0,0-1.75,19.4q30.28.85,62.58-1.45A77,77,0,0,0,386,436.3Z" fill="#ffdf70"/></g><g id="a8b0ec6a-8727-4d60-b911-66183eca847d" data-name="Layer0 6 MEMBER 0 1 STROKES"><path d="M329.64,447.05a.5.5,0,0,1-.5-.48,96.79,96.79,0,0,1,.19-11,.49.49,0,0,1,.53-.46.49.49,0,0,1,.46.53,97.29,97.29,0,0,0-.18,10.87.5.5,0,0,1-.48.52Zm14-.65a.5.5,0,0,1-.5-.48c-.05-1.37-.09-2.75-.1-4.14a.49.49,0,0,1,.49-.5h0a.51.51,0,0,1,.5.49c0,1.38.05,2.75.1,4.11a.5.5,0,0,1-.48.52Zm-7-.25a.5.5,0,0,1-.5-.48,159.93,159.93,0,0,1,.35-16.56.51.51,0,0,1,.54-.46.5.5,0,0,1,.46.54,157.62,157.62,0,0,0-.35,16.44.5.5,0,0,1-.48.52Zm14.34-.07a.5.5,0,0,1-.49-.46,88,88,0,0,1,.18-15.64.52.52,0,0,1,.55-.45.49.49,0,0,1,.45.54,87,87,0,0,0-.19,15.46.49.49,0,0,1-.45.54Zm15,0a.51.51,0,0,1-.5-.49c-.14-5.75-.51-11.25-1.11-16.35a.5.5,0,0,1,.44-.56.5.5,0,0,1,.55.44c.6,5.13,1,10.66,1.12,16.45a.5.5,0,0,1-.49.51Zm7.17-.15a.5.5,0,0,1-.5-.48c-.14-3.36-.36-6.68-.63-9.88a.5.5,0,1,1,1-.08c.28,3.21.49,6.54.64,9.92a.5.5,0,0,1-.48.52Zm-13.86,0a.49.49,0,0,1-.5-.47c-.28-4.38-.62-8.58-1-12.51a.49.49,0,0,1,.45-.54.52.52,0,0,1,.55.45c.38,3.93.72,8.15,1,12.54a.52.52,0,0,1-.47.53Zm21.4-.2a.5.5,0,0,1-.5-.48c0-1-.07-2.06-.13-3a.51.51,0,0,1,.48-.53.49.49,0,0,1,.52.47c.05,1,.1,2,.13,3.06a.5.5,0,0,1-.48.52Zm-.26-5a.5.5,0,0,1-.5-.47l-.11-1.42a.5.5,0,0,1,1-.08l.11,1.43a.5.5,0,0,1-.46.53Zm-36.81-.33h0a.5.5,0,0,1-.48-.51c0-.43,0-.87,0-1.3a.5.5,0,1,1,1,0c0,.43,0,.87,0,1.3A.51.51,0,0,1,343.56,440.3ZM380,437a.49.49,0,0,1-.49-.45,69,69,0,0,0-1.19-7.29.5.5,0,1,1,1-.22,68.43,68.43,0,0,1,1.2,7.41.5.5,0,0,1-.44.55Zm-36.38-.7h0a.5.5,0,0,1-.48-.51c.06-2.19.18-4.43.34-6.68a.5.5,0,0,1,1,.08c-.17,2.23-.28,4.46-.34,6.62A.51.51,0,0,1,343.64,436.3Zm28.63-2.38a.49.49,0,0,1-.5-.45q-.21-2.16-.45-4.26a.5.5,0,0,1,.44-.56.49.49,0,0,1,.55.44c.17,1.41.32,2.84.46,4.29a.5.5,0,0,1-.46.54Zm-42.21-.37H330a.5.5,0,0,1-.44-.55c.1-1,.23-2,.37-3a.51.51,0,0,1,.57-.43.51.51,0,0,1,.42.57c-.14,1-.26,2-.37,3A.5.5,0,0,1,330.06,433.55ZM358,431.17a.5.5,0,0,1-.5-.44l-.19-1.62a.51.51,0,0,1,.44-.56.51.51,0,0,1,.56.44l.19,1.63a.5.5,0,0,1-.44.55Z" fill="#eea243"/></g><g id="b3acbda5-7cdd-4253-ba3a-7c8bc3aec157" data-name="Layer0 7 FILL"><path d="M400.15,327a1.07,1.07,0,0,0-1,1.15s.53,1.72,1.6,5a8.17,8.17,0,0,1-.4,5q-2.55,7.2-2.55,7.65-.11,1.46,3.35,8.85t3.45,8.95a9.39,9.39,0,0,0,.25,2.7,32.46,32.46,0,0,0,3.6,5.45q3.19,4.35,6.75,9.65c2.43,3.53,3.68,5.37,3.75,5.5q4.85,6,14.15,7.75,11.15,12.6,10.75,18.5t-.45,18.45q-.11,12.56-16.7,118.15l57.25-2.1q-4.65-94.5-5-115t-.1-25.15q1.35-10.35,1.35-10.5a42,42,0,0,0-.75-9.55q-1.61-6.79-5.5-31.25a101.38,101.38,0,0,0-5.1-9.6,7.5,7.5,0,0,0-.65-1v-.05c0-.77,0-1.62,0-2.55v-.1c0-1.8-.17-3.92-.4-6.35a6.9,6.9,0,0,0-.05-.75,15.56,15.56,0,0,0-1.1-5.25,2.64,2.64,0,0,0-1.85-1.5,5,5,0,0,0-1.4-.25q-.15-1.15-.3-2.25a.49.49,0,0,1-.05-.2q-1.46-6.45-7.3-6.65-6.94-.3-15.3-1c-.6-.27-1.22-.53-1.85-.8a2.8,2.8,0,0,0-.6-.3,71.88,71.88,0,0,0-14.25-4.95,12.15,12.15,0,0,0-2.3-.35,7.23,7.23,0,0,0-3,.35,1.17,1.17,0,0,0-.35.2,2,2,0,0,0-.45.35,11.22,11.22,0,0,0-2.8,3.6q-1.6,2.81-3.55,12a13.88,13.88,0,0,1-.3,1.45,6.51,6.51,0,0,0-1.1-1.05.61.61,0,0,0-.3-.15,9,9,0,0,0-1.5-.95,11,11,0,0,0-4.95-1.1h-3m61.15,1.6c-.57,0-1.17-.05-1.8-.05q-8.85,0-20.1,1-.9.15-11.65,1.25c-2.23.2-4.07,1.6-5.5,4.2s-2.43,6.27-2.7,10.8a15.22,15.22,0,0,0,.35,4.25c.17.77.37,1.58.6,2.45.9,3.13,2.18,4.92,3.85,5.35q.56-7.85,3.8-10.3c.43-.37,2.08-.88,5-1.55q3.75-.94,15.3-4.8,9.75-3.34,11.35-3.35,2.6,0,6,4.35-3.4-4.35-6-4.35-1.61,0-11.35,3.35Q436.85,345,433.1,346c-2.87.67-4.52,1.18-5,1.55q-3.25,2.44-3.8,10.3V358q-.35,5.4,1.65,8.7a8.94,8.94,0,0,0,6.9,4.85,31.49,31.49,0,0,0,7.55,0,4.84,4.84,0,0,0,3-1.35,1.48,1.48,0,0,0,.15-.25,3.85,3.85,0,0,0,.5-1.25,6.54,6.54,0,0,0-.25-4,2.92,2.92,0,0,1-.25-.4,1.05,1.05,0,0,0-.15-.3,4.57,4.57,0,0,0-1.65-1.55,8,8,0,0,1-1.75.1,24.58,24.58,0,0,1-.65,3.65,6.19,6.19,0,0,1-1.1,2.7,6.19,6.19,0,0,0,1.1-2.7,24.58,24.58,0,0,0,.65-3.65,7.26,7.26,0,0,1-2-.35,7.26,7.26,0,0,0,2,.35,8,8,0,0,0,1.75-.1l.85-.2q4.85-1.15,6.4-7.55-1.55,6.4-6.4,7.55l-.85.2a4.57,4.57,0,0,1,1.65,1.55,1.05,1.05,0,0,1,.15.3,17.28,17.28,0,0,0,1.7.55,19,19,0,0,0,3.4.2,38.74,38.74,0,0,0,5.4-.55,37.75,37.75,0,0,0,5.1-1,37.75,37.75,0,0,1-5.1,1,38.74,38.74,0,0,1-5.4.55,19,19,0,0,1-3.4-.2,17.28,17.28,0,0,1-1.7-.55,2.92,2.92,0,0,0,.25.4,6.54,6.54,0,0,1,.25,4,3.85,3.85,0,0,1-.5,1.25,1.48,1.48,0,0,1-.15.25q-1.31,1.75-1.65,6.9a16.82,16.82,0,0,0,.65,6.45,12.82,12.82,0,0,0,2.9,4.85,26,26,0,0,0,2.35,1.9,26,26,0,0,1-2.35-1.9q-3.35-.45-6.6-4.05c-2.1-2.33-3.15-4.17-3.15-5.5.07-2.07-1.22-3.67-3.85-4.8a26.47,26.47,0,0,1-6.15-2.4,12,12,0,0,1-2.15-2,9.89,9.89,0,0,1-1.9-2.85,10.43,10.43,0,0,1-1-3.2c-.13-1.4-.27-2.68-.4-3.85A11.44,11.44,0,0,0,418.9,356a4.86,4.86,0,0,0-2.65-2.65,21.26,21.26,0,0,0-3.85-.65,5.29,5.29,0,0,1-2.9-1.5,2.15,2.15,0,0,1-1.1.45,2.15,2.15,0,0,0,1.1-.45,5,5,0,0,0,1.9-2,12.42,12.42,0,0,0,.75-1.55,26.61,26.61,0,0,0,1.45-7.75,15.28,15.28,0,0,0-.75-6.4,9.48,9.48,0,0,0-1.65-2.9,9.48,9.48,0,0,1,1.65,2.9q3.94-11.06,5.8-13.3c1.27-1.47,4.38-2.2,9.35-2.2q3,0,9.95.6-6.9-.6-9.95-.6c-5,0-8.08.73-9.35,2.2s-3.17,5.93-5.8,13.3a15.28,15.28,0,0,1,.75,6.4,26.61,26.61,0,0,1-1.45,7.75A9.17,9.17,0,0,0,419.9,350a15.22,15.22,0,0,1-.35-4.25q.4-6.79,2.7-10.8c1.43-2.6,3.27-4,5.5-4.2q10.75-1.1,11.65-1.25,11.25-1,20.1-1C460.13,328.5,460.73,328.52,461.3,328.55Z" fill="url(#b0e8ffd4-2885-41bc-840e-a518260a9fad)"/><path d="M424.35,358v-.15c-1.67-.43-3-2.22-3.85-5.35-.23-.87-.43-1.68-.6-2.45a9.17,9.17,0,0,1-7.75-2.45,12.42,12.42,0,0,1-.75,1.55,5,5,0,0,1-1.9,2,5.29,5.29,0,0,0,2.9,1.5,21.26,21.26,0,0,1,3.85.65A4.86,4.86,0,0,1,418.9,356a11.44,11.44,0,0,1,1.25,3.75c.13,1.17.27,2.45.4,3.85a10.43,10.43,0,0,0,1,3.2,9.89,9.89,0,0,0,1.9,2.85,12,12,0,0,0,2.15,2,26.47,26.47,0,0,0,6.15,2.4c2.63,1.13,3.92,2.73,3.85,4.8,0,1.33,1,3.17,3.15,5.5s4.37,3.75,6.6,4.05a12.82,12.82,0,0,1-2.9-4.85,16.82,16.82,0,0,1-.65-6.45q.34-5.15,1.65-6.9a4.84,4.84,0,0,1-3,1.35,31.49,31.49,0,0,1-7.55,0,8.94,8.94,0,0,1-6.9-4.85Q424,363.35,424.35,358Z" fill="#ffc47a"/></g><g id="bff5ece4-de1c-45bd-8115-af6e50e28e4c" data-name="Layer0 7 1 STROKES"><path d="M447.7,390.75a.52.52,0,0,1-.29-.09,25.56,25.56,0,0,1-2.39-1.94h0l0,0a13.47,13.47,0,0,1-3-5,17.56,17.56,0,0,1-.67-6.63,22.31,22.31,0,0,1,.91-5.46,7.86,7.86,0,0,1-1.69.44,32.5,32.5,0,0,1-7.67,0,9.45,9.45,0,0,1-7.28-5.1,15.05,15.05,0,0,1-1.73-8.74c-1.67-.63-2.93-2.46-3.82-5.57-.19-.72-.36-1.4-.51-2a9.64,9.64,0,0,1-7.18-2.16c-.16.34-.32.67-.5,1a5.58,5.58,0,0,1-2.07,2.23,2.7,2.7,0,0,1-1.31.52.53.53,0,0,1-.55-.46.51.51,0,0,1,.46-.54,1.67,1.67,0,0,0,.84-.35l0,0,0,0a4.55,4.55,0,0,0,1.7-1.85,14.62,14.62,0,0,0,.72-1.48,26.41,26.41,0,0,0,1.41-7.6,15,15,0,0,0-.72-6.2h0a9.15,9.15,0,0,0-1.56-2.75.5.5,0,1,1,.76-.64,10,10,0,0,1,1.23,1.86c2.45-6.77,4.24-10.78,5.45-12.26,1.39-1.6,4.57-2.38,9.74-2.38,2,0,5.41.2,10,.6a.5.5,0,1,1-.08,1c-4.56-.4-7.89-.6-9.91-.6-4.79,0-7.81.68-9,2s-3.08,5.79-5.65,13a16.25,16.25,0,0,1,.72,6.43,28.32,28.32,0,0,1-1.36,7.58,8.56,8.56,0,0,0,6.56,2.15,15,15,0,0,1-.25-3.85c.27-4.58,1.2-8.29,2.77-11s3.49-4.23,5.89-4.45c7.11-.73,11-1.14,11.61-1.24,7.51-.67,14.29-1,20.18-1,.64,0,1.25,0,1.83.05a.5.5,0,0,1,.47.53.51.51,0,0,1-.53.47c-.56,0-1.15-.05-1.77-.05-5.86,0-12.61.34-20.06,1-.57.09-4.5.52-11.64,1.25-2.08.18-3.75,1.47-5.11,3.94s-2.38,6.16-2.64,10.59a14.55,14.55,0,0,0,.34,4.11h0c.16.76.36,1.56.59,2.42.73,2.54,1.71,4.14,2.92,4.77.44-5,1.74-8.32,4-10,.32-.27,1.22-.73,5.14-1.64,2.47-.62,7.6-2.24,15.25-4.78,6.61-2.28,10.38-3.38,11.51-3.38,1.91,0,4,1.49,6.39,4.54a.5.5,0,1,1-.78.62c-2.16-2.76-4.05-4.16-5.61-4.16-.69,0-3.19.58-11.19,3.32-7.67,2.56-12.83,4.18-15.34,4.81-3.78.89-4.58,1.31-4.75,1.45-2.05,1.55-3.26,4.89-3.62,9.94V358c-.23,3.51.3,6.34,1.58,8.44A8.39,8.39,0,0,0,433,371a30.42,30.42,0,0,0,7.42,0,4.47,4.47,0,0,0,2.7-1.18h0a1.31,1.31,0,0,0,.07-.13,3.45,3.45,0,0,0,.46-1.13,6,6,0,0,0-.2-3.7,4.78,4.78,0,0,1-.26-.42h0l0-.09a.76.76,0,0,0-.09-.16,4.11,4.11,0,0,0-1.32-1.31,8.31,8.31,0,0,1-1.21.09,27,27,0,0,1-.61,3.26c-.53,2.11-1,2.69-1.25,2.95a.5.5,0,0,1-.68-.74c.14-.12.49-.6,1-2.45a25.49,25.49,0,0,0,.58-3.07,7.29,7.29,0,0,1-1.61-.34.5.5,0,0,1,.32-.94,7,7,0,0,0,1.86.32h0a7.45,7.45,0,0,0,1.62-.09l.84-.2c3.06-.72,5-3.07,6-7.18a.5.5,0,1,1,1,.24c-1.06,4.35-3.26,7-6.56,7.86a5.67,5.67,0,0,1,.89,1,1.62,1.62,0,0,1,.1.18c.62.22,1.11.38,1.45.46a17.71,17.71,0,0,0,3.28.19,38.92,38.92,0,0,0,5.32-.54,36.52,36.52,0,0,0,5-1,.5.5,0,0,1,.3,1,36.76,36.76,0,0,1-5.17,1.06,40,40,0,0,1-5.48.56,19.17,19.17,0,0,1-3.51-.21l-.64-.19a7.54,7.54,0,0,1,0,3.7,4.15,4.15,0,0,1-.57,1.42,1.89,1.89,0,0,1-.15.25l0,0c-.8,1.08-1.33,3.31-1.55,6.63a16.64,16.64,0,0,0,.62,6.26A12.49,12.49,0,0,0,445.7,388a24.65,24.65,0,0,0,2.29,1.85.5.5,0,0,1,.12.7A.49.49,0,0,1,447.7,390.75Z" fill="#ef994a"/></g><g id="e464ac9e-b4ae-4ac6-966a-8153afa6d1a8" data-name="Layer0 8 FILL"><path d="M437.35,465.35a8.38,8.38,0,0,1,.8.9,5.7,5.7,0,0,1,1.45-2.05l.45-4.05A21.88,21.88,0,0,0,436.8,464a8.21,8.21,0,0,0-.75,1.3,2.19,2.19,0,0,0,.45-.25c.2-.13.48,0,.85.3m41.7-23.65a3.76,3.76,0,0,1,1.35-.05,2.39,2.39,0,0,1,.6-1.3,1.11,1.11,0,0,1,.8-.2c.27,0,.48.07.65.1-.53-.7-1.68-1-3.45-.85Z" fill="#fb6e73"/><path d="M482.55,440.4a.48.48,0,0,0-.1-.15c-.17,0-.38-.07-.65-.1a1.11,1.11,0,0,0-.8.2,2.39,2.39,0,0,0-.6,1.3q-.19.9-4.2,4.65a83.48,83.48,0,0,1-15.1,10.85,81.69,81.69,0,0,1-16.85,7.7l-.05,0q-5.29,1.65-6,1.4l-.05-.05a8.38,8.38,0,0,0-.8-.9c-.37-.33-.65-.43-.85-.3a2.19,2.19,0,0,1-.45.25,2.34,2.34,0,0,0-.05,2.2q1.25,2.21,8.95-.25A98,98,0,0,0,477.9,448.1Q483.79,442.6,482.55,440.4Z" fill="#fb868b"/></g><g id="fa71462b-a856-4f67-a795-a96beffed4ce" data-name="Layer0 9 FILL"><path d="M441.15,452.8l-.6.55a28.83,28.83,0,0,0-3.8,4.25.44.44,0,0,0,.2-.05l-.15.1c.56-.23.86-.16.9.2s.21,1.07.45,2c0-.42.87-1.45,2.5-3.1l.5-3.95m39.2-17.5A2.64,2.64,0,0,1,481,434a1,1,0,0,1,.75-.2l.65.05c-.54-.69-1.73-1-3.55-.8l0,2.3A4.33,4.33,0,0,1,480.35,435.3Z" fill="#fb6e73"/><path d="M482.55,434.05l-.15-.2-.65-.05a1,1,0,0,0-.75.2,2.64,2.64,0,0,0-.65,1.3q-.15.88-4.15,4.6h-.05a93.37,93.37,0,0,1-31.95,18.6h0q-5.31,1.71-6.05,1.4h0v0c-.24-.93-.39-1.6-.45-2s-.34-.43-.9-.2l.15-.1a.44.44,0,0,1-.2.05c-1,1.55-1.23,2.73-.75,3.55q1.25,2.21,8.95-.25a98,98,0,0,0,32.95-19.15Q483.79,436.25,482.55,434.05Z" fill="#fb868b"/></g><g id="e938b5c4-175a-4de8-b17f-b15e991527aa" data-name="Layer0 10 FILL"><path d="M233.85,225q-10.8,3.8-18.7,6.1l6.65,19.45q7.95-2.75,18.25-6.4l-4-19.9-2.2.75m-184.3,19.6c-1.73,1.33-3.63,2.82-5.7,4.45l22.6,28.45,9.85-7.25L57.05,239.05q-3,2.14-7.5,5.5M55,235.7l-8.2-13.25-15.5,10.8L41.5,246.1c1.67-1.33,3.73-2.92,6.2-4.75q4.2-3.3,7.3-5.65m74.35,20.1q3.89.9,8.15,2.05l1.35.35q1.69-5.64,3.9-13.15l-1.3-.3q-4.32-1.08-10.75-2.25-.81,8.3-1.35,13.3m2.55-25.6c-.14,1.47-.27,2.89-.4,4.25a107.17,107.17,0,0,0,11.75,2q1,.12,1.95.3c.07-.22.14-.43.2-.65Q151,217,153.85,207.35q-6-1.12-19.65-2.6-.67,8.52-2.3,25.45M99,176.85,70.5,185.7l25.25,80.75,15.15-4.35L99,176.85m212.2-28.25-26.8-8.85L270.75,236l15.15,4.35,25.25-91.75m-88.3,9.5-29.6,9.35,20.2,58.65q6.7-2.15,16.25-5,3-.9,5.4-1.6l-12.25-61.4m141.1,85q-2.59.4-10.5,2.45,1.24,6.3,2.3,11.45,4.46-1.2,10.95-2.9c-.1-2-.22-4.22-.35-6.55-.1-1.57-.18-3.07-.25-4.5a21.5,21.5,0,0,0-2.15.05m1.1-24.15c0-4.43.05-8.17.15-11.2q-8.7,1.7-17.65,3.5,1.35,11,5,29.8,6.26-1.35,13.3-3-.8-15.45-.8-19.1m44.5,38,22-68.75-23.15-4.65-10.65,71.6,11.8,1.8m35.05-6.5-8.85,16.45,7.15,4.25,11.4-14.45q-5.08-3.44-9.7-6.25M472,234.3l-14.3-8-7,13a73,73,0,0,1,11.65,7.3Z" fill="#fffc69"/></g></g></g></svg>