<svg id="Capa_1" enable-background="new 0 0 512 512" height="512" viewBox="0 0 512 512" width="512" xmlns="http://www.w3.org/2000/svg"><g><g><path d="m381.017 337.615c-3.235 0-6.25-2.047-7.329-5.285-1.349-4.048.839-8.424 4.886-9.773l16.988-5.663c5.353-1.784 8.949-6.773 8.949-12.415v-53.249c0-5.642-3.596-10.631-8.948-12.415l-16.988-5.663c-4.048-1.35-6.235-5.725-4.886-9.773 1.35-4.049 5.724-6.234 9.774-4.887l16.988 5.663c11.672 3.891 19.514 14.771 19.514 27.075v53.249c0 12.304-7.842 23.184-19.515 27.075l-16.987 5.663c-.812.269-1.636.398-2.446.398z" fill="#557981"/></g><path d="m173.207 35.382h27.057v55.154h-27.057z" fill="#ababab" transform="matrix(-1 0 0 -1 373.471 125.919)"/><path d="m275.191 35.382h27.057v55.154h-27.057z" fill="#ababab"/><path d="m275.191 35.382h27.057v18.732h-27.057z" fill="#9b9b9b"/><path d="m173.207 35.382h27.057v18.732h-27.057z" fill="#9b9b9b"/><path d="m343.418 467.252h-211.382c-22.091 0-40-17.909-40-40v-296.715c0-22.091 17.909-40 40-40h211.382c22.091 0 40 17.909 40 40v296.715c0 22.091-17.908 40-40 40z" fill="#fb9538"/><path d="m343.418 90.537h-22.439c22.989 0 41.626 18.637 41.626 41.626v293.463c0 22.989-18.637 41.626-41.626 41.626h22.439c22.091 0 40-17.909 40-40v-296.715c0-22.092-17.908-40-40-40z" fill="#fc840d"/><path d="m352.199 418.341c-29.783 0-54.746 20.966-60.946 48.911h50.958c22.758 0 41.207-18.449 41.207-41.207v-7.703h-31.219z" fill="#f16600"/><path d="m123.256 418.341c29.783 0 54.747 20.966 60.946 48.911h-50.539c-22.989 0-41.626-18.637-41.626-41.626v-7.285z" fill="#f16600"/><circle cx="352.199" cy="480.78" fill="#595959" r="31.22"/><circle cx="123.256" cy="480.78" fill="#595959" r="31.22"/><g fill="#f16600"><path d="m150.923 395.447h-1.22c-8.284 0-15-6.716-15-15v-232.244c0-8.284 6.716-15 15-15h1.22c8.284 0 15 6.716 15 15v232.244c0 8.284-6.716 15-15 15z"/><path d="m209.199 395.447h-1.22c-8.284 0-15-6.716-15-15v-232.244c0-8.284 6.716-15 15-15h1.22c8.284 0 15 6.716 15 15v232.244c0 8.284-6.716 15-15 15z"/><path d="m267.475 395.447h-1.22c-8.284 0-15-6.716-15-15v-232.244c0-8.284 6.716-15 15-15h1.22c8.284 0 15 6.716 15 15v232.244c0 8.284-6.715 15-15 15z"/><path d="m325.752 395.447h-1.22c-8.284 0-15-6.716-15-15v-232.244c0-8.284 6.716-15 15-15h1.22c8.284 0 15 6.716 15 15v232.244c0 8.284-6.716 15-15 15z"/></g><path d="m310.979 35.382h-146.504c-5.523 0-10-4.477-10-10v-15.382c0-5.523 4.477-10 10-10h146.504c5.523 0 10 4.477 10 10v15.382c0 5.523-4.477 10-10 10z" fill="#557981"/><g fill="#434343"><circle cx="352.199" cy="480.78" r="10.407"/><circle cx="123.256" cy="480.78" r="10.407"/></g></g></svg>